<?xml version="1.0" encoding="UTF-8"?>
<!DOCTYPE svg PUBLIC "-//W3C//DTD SVG 1.1//EN" "http://www.w3.org/Graphics/SVG/1.1/DTD/svg11.dtd">
<!-- Creator: CorelDRAW 2020 (64-Bit) -->
<svg xmlns="http://www.w3.org/2000/svg" xml:space="preserve" width="50px" height="50px" version="1.1" style="shape-rendering:geometricPrecision; text-rendering:geometricPrecision; image-rendering:optimizeQuality; fill-rule:evenodd; clip-rule:evenodd"
viewBox="0 0 0.2 0.2"
 xmlns:xlink="http://www.w3.org/1999/xlink"
 xmlns:xodm="http://www.corel.com/coreldraw/odm/2003">
 <defs>
  <style type="text/css">
   <![CDATA[
    .fil2 {fill:#33CC66}
    .fil1 {fill:#00B394}
    .fil0 {fill:#33CC66;fill-rule:nonzero}
   ]]>
  </style>
 </defs>
 <g id="Layer_x0020_1">
  <metadata id="CorelCorpID_0Corel-Layer"/>
  <g id="_1631925046448">
   <path class="fil0" d="M0.17 0.18c-0.02,-0.01 -0.03,-0.01 -0.04,-0.02 -0.01,0.02 -0.01,0.03 -0.02,0.04l-0.01 0c0.01,-0.01 0.02,-0.03 0.02,-0.04 -0.01,-0.01 -0.02,-0.02 -0.02,-0.04 0,0.02 -0.01,0.03 -0.02,0.04 0,0.01 0,0.03 0.02,0.04l-0.01 0c-0.01,-0.01 -0.01,-0.02 -0.02,-0.04 -0.01,0.01 -0.02,0.01 -0.04,0.02l0 -0.01c0.02,0 0.03,0 0.04,-0.01 0,0 0,0 0.01,0l0 0c0.01,-0.01 0.02,-0.03 0.02,-0.05l0 0 0 0c0,0.02 0.01,0.04 0.02,0.05l0 0c0.01,0 0.01,0 0.01,0l0 0c0.01,0.01 0.02,0.01 0.04,0.01l0 0.01zm-0.1 -0.02c0,0 0,0 0,-0.01 0,-0.01 0.01,-0.02 0.01,-0.03 -0.01,0 -0.02,0.01 -0.03,0.01 0,0 -0.01,0 -0.01,0 0,0 0,0 0,-0.01 0.01,0 0.01,0 0.01,0 0.01,0 0.03,0 0.04,-0.02l0 0.01 0.01 0c-0.02,0.01 -0.03,0.03 -0.03,0.04 0,0 0,0 0,0.01 0,0 0,0 0,0 0,0 0,0 0,0zm-0.03 -0.03l0 0c-0.01,0.01 -0.01,0.02 -0.01,0.04l-0.01 0c0.01,-0.02 0.01,-0.03 0.01,-0.04 -0.01,-0.01 -0.02,-0.01 -0.03,-0.02l0 -0.01c0.01,0.01 0.03,0.02 0.04,0.02 0.01,-0.01 0.02,-0.02 0.04,-0.02 -0.02,0 -0.03,-0.01 -0.04,-0.02 -0.01,0 -0.03,0 -0.04,0.02l0 -0.01c0.01,-0.01 0.02,-0.01 0.03,-0.02 0,-0.01 0,-0.02 -0.01,-0.04l0.01 0c0,0.02 0,0.03 0.01,0.04 0,0 0,0 0,0.01l0 0c0.01,0.01 0.03,0.02 0.05,0.02l0 0 0 0c-0.02,0 -0.04,0.01 -0.05,0.02l0 0c0,0.01 0,0.01 0,0.01zm0 -0.06c0,0 0,0 0.01,0 0.01,0 0.02,0.01 0.03,0.01 0,-0.01 -0.01,-0.02 -0.01,-0.03 0,0 0,-0.01 0,-0.01 0,0 0,0 0,0 0,0.01 0,0.01 0,0.01 0,0.01 0.01,0.03 0.03,0.04l-0.01 0 0 0.01c-0.01,-0.02 -0.03,-0.03 -0.04,-0.03 0,0 0,0 -0.01,0 0,0 0,0 0,0 0,0 0,0 0,0zm0.03 -0.03l0 0c-0.01,-0.01 -0.02,-0.01 -0.04,-0.01l0 -0.01c0.02,0.01 0.03,0.01 0.04,0.01 0.01,-0.01 0.01,-0.02 0.02,-0.03l0.01 0c-0.02,0.01 -0.02,0.03 -0.02,0.04 0.01,0.01 0.02,0.02 0.02,0.04 0,-0.02 0.01,-0.03 0.02,-0.04 0,-0.01 -0.01,-0.03 -0.02,-0.04l0.01 0c0.01,0.01 0.01,0.02 0.02,0.03 0.01,0 0.02,0 0.04,-0.01l0 0.01c-0.02,0 -0.03,0 -0.04,0.01 0,0 0,0 -0.01,0l0 0c-0.01,0.01 -0.02,0.03 -0.02,0.05l0 0 0 0c0,-0.02 -0.01,-0.04 -0.02,-0.05l0 0c-0.01,0 -0.01,0 -0.01,0zm0.06 0c0,0 0,0 0,0.01 0,0.01 -0.01,0.02 -0.01,0.03 0.01,0 0.02,-0.01 0.03,-0.01 0,0 0.01,0 0.01,0 0,0 0,0 0,0 -0.01,0 -0.01,0 -0.01,0 -0.01,0 -0.03,0.01 -0.04,0.03l0 -0.01 -0.01 0c0.02,-0.01 0.02,-0.03 0.02,-0.04 0,0 0,0 0,-0.01 0.01,0 0.01,0 0.01,0 0,0 0,0 0,0zm0.03 0.03l0 0c0.01,-0.01 0.01,-0.02 0.01,-0.04l0.01 0c-0.01,0.02 -0.01,0.03 -0.02,0.04 0.02,0.01 0.03,0.01 0.04,0.02l0 0.01c-0.01,-0.02 -0.03,-0.02 -0.04,-0.02 -0.01,0.01 -0.02,0.02 -0.04,0.02 0.02,0 0.03,0.01 0.04,0.02 0.01,0 0.03,-0.01 0.04,-0.02l0 0.01c-0.01,0.01 -0.02,0.01 -0.04,0.02 0.01,0.01 0.01,0.02 0.02,0.04l-0.01 0c0,-0.02 0,-0.03 -0.01,-0.04 0,0 0,0 0,-0.01l0 0c-0.01,-0.01 -0.03,-0.02 -0.05,-0.02l0 0 0 0c0.02,0 0.04,-0.01 0.05,-0.02l0 0c0,-0.01 0,-0.01 0,-0.01zm0 0.06c0,0 0,0 -0.01,0 -0.01,0 -0.02,-0.01 -0.03,-0.01 0,0.01 0.01,0.02 0.01,0.03 0,0 0,0.01 0,0.01 0,0 0,0 -0.01,0 0,-0.01 0,-0.01 0,-0.01 0,-0.01 0,-0.03 -0.02,-0.04l0.01 0 0 -0.01c0.01,0.02 0.03,0.02 0.04,0.02 0,0 0,0 0.01,0 0,0.01 0,0.01 0,0.01 0,0 0,0 0,0zm-0.06 -0.09c0,0 0,0 0,0 0,0 -0.01,0 -0.01,0.01 0,0 0.01,0 0.01,0 0,0 0,0 0,0 0,0 0,0 0,0 0,0 0,0 0,0 0,-0.01 0,-0.01 0,-0.01 0,0 0,0 0,0zm-0.01 0c0.01,0 0.01,0 0.01,0 0,0 0,0 0.01,0 0,0 0,0 0,0.01 0,0 0,0 0,0 -0.01,0 -0.01,0 -0.01,0 0,0 0,0 -0.01,0 0,0 0,0 0,0 0,-0.01 0,-0.01 0,-0.01zm0.01 0.12c0,0 0,0 0,0 0,0 0,0 0,-0.01 0,0 0,0 0,0 0,0 0,0 0,0 0,0 0,0 0,0 0,0 -0.01,0 -0.01,0 0,0.01 0.01,0.01 0.01,0.01 0,0 0,0 0,0zm0.01 0c-0.01,0 -0.01,0 -0.01,0 0,0 0,0 -0.01,0 0,0 0,0 0,-0.01 0,0 0,0 0,0 0.01,0 0.01,0 0.01,0 0,0 0,0 0.01,0 0,0 0,0 0,0 0,0.01 0,0.01 0,0.01zm0.03 -0.02c0,0.01 0,0.01 0,0.01 0,0 -0.01,0 -0.01,-0.01 0,0 0,0 0,0 0,0 0,-0.01 0,-0.01l0 0c0,0 0.01,0 0.01,0 0,0 0,0 0,0l0 0c0.01,0 0.01,0.01 0.01,0.01 0,0 0,0 -0.01,0zm0 0c0,0 0,0 0,0 0,0 0,0 0,0 0,0 0,0 0,-0.01 0,0 0,0 0,0 0,0 0,0 -0.01,0 0,0.01 0,0.01 0,0.01 0,0 0,0 0,0 0.01,0 0.01,0 0.01,0zm-0.08 0c0,0 0,0 0,0 0,0 0,0 0,0 0.01,0 0.01,0 0.01,0 0,0 0,0 -0.01,-0.01 0,0 0,0 0,0 0,0 0,0 0,0 0,0.01 0,0.01 0,0.01 0,0 0,0 0,0zm0 0.01c0,0 0,0 0,-0.01 -0.01,0 -0.01,0 -0.01,0 0,0 0,-0.01 0.01,-0.01l0 0c0,0 0,0 0,0 0,0 0.01,0 0.01,0l0 0c0,0 0,0.01 0,0.01 0,0 0,0 0,0l0 0c0,0.01 -0.01,0.01 -0.01,0.01zm0.1 -0.05c0,0 0,0 0,0.01 0,0 0,0 -0.01,0 0,0 0,0 0,0 0,-0.01 0,-0.01 0,-0.01 0,0 0,0 0,-0.01 0,0 0,0 0,0 0.01,0 0.01,0 0.01,0 0,0.01 0,0.01 0,0.01zm0 0c0,0 0,0 0,0 0,0 0,0 0,0 0,0 0,-0.01 -0.01,-0.01 0,0 0,0.01 0,0.01 0,0 0,0 0,0 0,0 0,0 0,0 0,0 0,0 0,0 0.01,0 0.01,0 0.01,0zm-0.12 0c0,0 0,0 0,0 0,0 0,0 0.01,0 0,0 0,0 0,0 0,0 0,0 0,0 0,0 0,0 0,0 0,0 0,-0.01 0,-0.01 -0.01,0 -0.01,0.01 -0.01,0.01 0,0 0,0 0,0zm0 0.01c0,-0.01 0,-0.01 0,-0.01 0,0 0,0 0,-0.01 0,0 0,0 0.01,0 0,0 0,0 0,0 0,0.01 0,0.01 0,0.01 0,0 0,0 0,0.01 0,0 0,0 0,0 -0.01,0 -0.01,0 -0.01,0zm0.1 -0.05c0.01,0 0.01,0 0.01,0 0,0 0,0.01 -0.01,0.01 0,0 0,0 0,0 0,0 -0.01,0 -0.01,0 0,0 0,-0.01 0,-0.01 0,0 0,0 0,0 0,-0.01 0.01,-0.01 0.01,-0.01 0,0 0,0 0,0.01zm0 0c0,0 0,0 0,0 0,0 0,0 0,0 0,0 0,0 -0.01,0 0,0 0,0 0,0 0,0 0,0 0,0 0.01,0.01 0.01,0.01 0.01,0.01 0,0 0,0 0,-0.01 0,0 0,0 0,0zm-0.08 0c0,0 0,0 0,0 0,0 0,0 0,0 0,0.01 0,0.01 0,0.01 0,0 0,0 0,-0.01 0.01,0 0.01,0 0.01,0 0,0 0,0 -0.01,0 0,0 0,0 0,0 0,0 0,0 0,0zm-0.01 0c0,0 0,0 0.01,0 0,-0.01 0,-0.01 0,-0.01 0,0 0.01,0 0.01,0.01l0 0c0,0 0,0 0,0 0,0 0,0.01 0,0.01l0 0c0,0 -0.01,0 -0.01,0 0,0 0,0 0,0 -0.01,0 -0.01,-0.01 -0.01,-0.01z"/>
   <path class="fil1" d="M0.03 0.03c0.02,0 0.03,0 0.04,0.01l0 0c0,0 0,0 0.01,0 0.01,0.01 0.02,0.03 0.02,0.05l0 0 0 0c0,-0.02 0.01,-0.04 0.02,-0.05l0 0c0.01,0 0.01,0 0.01,0 0.01,-0.01 0.02,-0.01 0.04,-0.01l0 -0.01c-0.02,0.01 -0.03,0.01 -0.04,0.01 -0.01,-0.01 -0.01,-0.02 -0.02,-0.03l-0.01 0c0.01,0.01 0.02,0.03 0.02,0.04 -0.01,0.01 -0.02,0.02 -0.02,0.04 0,-0.02 -0.01,-0.03 -0.02,-0.04 0,-0.01 0,-0.03 0.02,-0.04l-0.01 0c-0.01,0.01 -0.01,0.02 -0.02,0.03 -0.01,0 -0.02,0 -0.04,-0.01l0 0.01z"/>
   <path class="fil1" d="M0.09 0.1c-0.02,0 -0.04,-0.01 -0.05,-0.02l0 0c0,-0.01 0,-0.01 0,-0.01 -0.01,-0.01 -0.01,-0.02 -0.01,-0.04l-0.01 0c0.01,0.02 0.01,0.03 0.01,0.04 -0.01,0.01 -0.02,0.01 -0.03,0.02l0 0.01c0.01,-0.02 0.03,-0.02 0.04,-0.02 0.01,0.01 0.02,0.02 0.04,0.02 -0.02,0 -0.03,0.01 -0.04,0.02 -0.01,0 -0.03,-0.01 -0.04,-0.02l0 0.01c0.01,0.01 0.02,0.01 0.03,0.02 0,0.01 0,0.02 -0.01,0.04l0.01 0c0,-0.02 0,-0.03 0.01,-0.04l0 0c0,0 0,0 0,-0.01 0.01,-0.01 0.03,-0.02 0.05,-0.02l0 0 0 0z"/>
   <path class="fil1" d="M0.16 0.08c-0.01,0.01 -0.03,0.02 -0.05,0.02l0 0 0 0c0.02,0 0.04,0.01 0.05,0.02l0 0c0,0.01 0,0.01 0,0.01 0.01,0.01 0.01,0.02 0.01,0.04l0.01 0c-0.01,-0.02 -0.01,-0.03 -0.02,-0.04 0.02,-0.01 0.03,-0.01 0.04,-0.02l0 -0.01c-0.01,0.01 -0.03,0.02 -0.04,0.02 -0.01,-0.01 -0.02,-0.02 -0.04,-0.02 0.02,0 0.03,-0.01 0.04,-0.02 0.01,0 0.03,0 0.04,0.02l0 -0.01c-0.01,-0.01 -0.02,-0.01 -0.04,-0.02 0.01,-0.01 0.01,-0.02 0.02,-0.04l-0.01 0c0,0.02 0,0.03 -0.01,0.04l0 0c0,0 0,0 0,0.01z"/>
   <path class="fil1" d="M0.12 0.16c-0.01,-0.01 -0.02,-0.03 -0.02,-0.05l0 0 0 0c0,0.02 -0.01,0.04 -0.02,0.05l0 0c-0.01,0 -0.01,0 -0.01,0 -0.01,0.01 -0.02,0.01 -0.04,0.01l0 0.01c0.02,-0.01 0.03,-0.01 0.04,-0.02 0.01,0.02 0.01,0.03 0.02,0.04l0.01 0c-0.02,-0.01 -0.02,-0.03 -0.02,-0.04 0.01,-0.01 0.02,-0.02 0.02,-0.04 0,0.02 0.01,0.03 0.02,0.04 0,0.01 -0.01,0.03 -0.02,0.04l0.01 0c0.01,-0.01 0.01,-0.02 0.02,-0.04 0.01,0.01 0.02,0.01 0.04,0.02l0 -0.01c-0.02,0 -0.03,0 -0.04,-0.01l0 0c0,0 0,0 -0.01,0z"/>
   <path class="fil2" d="M0.09 0.04c0,0 0,0 0,0.01 0,0 0,0 0,0 0.01,0 0.01,0 0.01,0 0,0 0,0 0.01,0 0,0 0,0 0,0 0,-0.01 0,-0.01 0,-0.01 -0.01,0 -0.01,0 -0.01,0 0,0 0,0 -0.01,0zm0 0.01c0,-0.01 0.01,-0.01 0.01,-0.01 0,0 0,0 0,0 0,0 0,0 0,0 0,0 0,0 0,0.01 0,0 0,0 0,0 0,0 0,0 0,0 0,0 0,0 0,0 0,0 -0.01,0 -0.01,0z"/>
   <path class="fil2" d="M0.05 0.09c0,0 0,0 0,0 -0.01,0 -0.01,0 -0.01,0 0,0.01 0,0.01 0,0.01 0,0 0,0 0,0.01 0,0 0,0 0.01,0 0,0 0,0 0,0 0,-0.01 0,-0.01 0,-0.01 0,0 0,0 0,-0.01zm0 0c0,0 0,0.01 0,0.01 0,0 0,0 0,0 0,0 0,0 0,0 0,0 0,0 0,0 -0.01,0 -0.01,0 -0.01,0 0,0 0,0 0,0 0,0 0,0 0,0 0,0 0,-0.01 0.01,-0.01z"/>
   <path class="fil2" d="M0.15 0.09c0,0 0,0 0,0 0,0.01 0,0.01 0,0.01 0,0 0,0 0,0.01 0,0 0,0 0,0 0.01,0 0.01,0 0.01,0 0,-0.01 0,-0.01 0,-0.01 0,0 0,0 0,-0.01 0,0 0,0 -0.01,0zm0 0c0.01,0 0.01,0.01 0.01,0.01 0,0 0,0 0,0 0,0 0,0 0,0 0,0 0,0 -0.01,0 0,0 0,0 0,0 0,0 0,0 0,0 0,0 0,0 0,0 0,0 0,-0.01 0,-0.01z"/>
   <path class="fil2" d="M0.11 0.15c-0.01,0 -0.01,0 -0.01,0 0,0 0,0 -0.01,0 0,0 0,0 0,0 0,0.01 0,0.01 0,0.01 0.01,0 0.01,0 0.01,0 0,0 0,0 0.01,0 0,0 0,0 0,-0.01 0,0 0,0 0,0zm-0.01 0c0,0 0,0 0,0 0,0 0,0 0,0 0,0 0,0 0,0 0,0.01 0,0.01 0,0.01 0,0 0,0 0,0 0,0 0,0 0,0 0,0 -0.01,0 -0.01,-0.01 0,0 0.01,0 0.01,0z"/>
  </g>
 </g>
</svg>
